<mxfile host="app.diagrams.net" modified="2024-04-27T15:18:01.732Z" agent="Mozilla/5.0 (X11; Linux x86_64; rv:125.0) Gecko/20100101 Firefox/125.0" etag="X8LMQgnWVp3dI8_Urpnd" version="24.3.1" type="device">
  <diagram name="Page-1" id="whHoUh4HutGnMUqi3Y0A">
    <mxGraphModel dx="880" dy="524" grid="1" gridSize="10" guides="1" tooltips="1" connect="1" arrows="1" fold="1" page="1" pageScale="1" pageWidth="850" pageHeight="1100" math="0" shadow="0">
      <root>
        <mxCell id="0" />
        <mxCell id="1" parent="0" />
        <mxCell id="Hsyt4QbSnEiKnOeJpD4M-8" style="edgeStyle=orthogonalEdgeStyle;rounded=0;orthogonalLoop=1;jettySize=auto;html=1;entryX=0;entryY=0;entryDx=0;entryDy=0;" edge="1" parent="1" source="Hsyt4QbSnEiKnOeJpD4M-1" target="Hsyt4QbSnEiKnOeJpD4M-2">
          <mxGeometry relative="1" as="geometry" />
        </mxCell>
        <mxCell id="Hsyt4QbSnEiKnOeJpD4M-1" value="Client #1" style="rounded=1;whiteSpace=wrap;html=1;" vertex="1" parent="1">
          <mxGeometry x="100" y="110" width="120" height="60" as="geometry" />
        </mxCell>
        <mxCell id="Hsyt4QbSnEiKnOeJpD4M-27" style="edgeStyle=orthogonalEdgeStyle;rounded=0;orthogonalLoop=1;jettySize=auto;html=1;entryX=0;entryY=0.5;entryDx=0;entryDy=0;" edge="1" parent="1" source="Hsyt4QbSnEiKnOeJpD4M-2" target="Hsyt4QbSnEiKnOeJpD4M-20">
          <mxGeometry relative="1" as="geometry" />
        </mxCell>
        <mxCell id="Hsyt4QbSnEiKnOeJpD4M-28" style="edgeStyle=orthogonalEdgeStyle;rounded=0;orthogonalLoop=1;jettySize=auto;html=1;entryX=0;entryY=0.5;entryDx=0;entryDy=0;" edge="1" parent="1" source="Hsyt4QbSnEiKnOeJpD4M-2" target="Hsyt4QbSnEiKnOeJpD4M-21">
          <mxGeometry relative="1" as="geometry" />
        </mxCell>
        <mxCell id="Hsyt4QbSnEiKnOeJpD4M-29" style="edgeStyle=orthogonalEdgeStyle;rounded=0;orthogonalLoop=1;jettySize=auto;html=1;entryX=0;entryY=0.5;entryDx=0;entryDy=0;" edge="1" parent="1" source="Hsyt4QbSnEiKnOeJpD4M-2" target="Hsyt4QbSnEiKnOeJpD4M-22">
          <mxGeometry relative="1" as="geometry" />
        </mxCell>
        <mxCell id="Hsyt4QbSnEiKnOeJpD4M-31" style="edgeStyle=orthogonalEdgeStyle;rounded=0;orthogonalLoop=1;jettySize=auto;html=1;entryX=0;entryY=0.5;entryDx=0;entryDy=0;" edge="1" parent="1" source="Hsyt4QbSnEiKnOeJpD4M-2" target="Hsyt4QbSnEiKnOeJpD4M-30">
          <mxGeometry relative="1" as="geometry" />
        </mxCell>
        <mxCell id="Hsyt4QbSnEiKnOeJpD4M-2" value="&lt;div&gt;Orchestrator&lt;/div&gt;&lt;div&gt;Server&lt;/div&gt;" style="rounded=1;whiteSpace=wrap;html=1;" vertex="1" parent="1">
          <mxGeometry x="580" y="230" width="120" height="60" as="geometry" />
        </mxCell>
        <mxCell id="Hsyt4QbSnEiKnOeJpD4M-9" style="edgeStyle=orthogonalEdgeStyle;rounded=0;orthogonalLoop=1;jettySize=auto;html=1;entryX=0;entryY=0.25;entryDx=0;entryDy=0;" edge="1" parent="1" source="Hsyt4QbSnEiKnOeJpD4M-3" target="Hsyt4QbSnEiKnOeJpD4M-2">
          <mxGeometry relative="1" as="geometry" />
        </mxCell>
        <mxCell id="Hsyt4QbSnEiKnOeJpD4M-3" value="Client #2" style="rounded=1;whiteSpace=wrap;html=1;" vertex="1" parent="1">
          <mxGeometry x="100" y="190" width="120" height="60" as="geometry" />
        </mxCell>
        <mxCell id="Hsyt4QbSnEiKnOeJpD4M-10" style="edgeStyle=orthogonalEdgeStyle;rounded=0;orthogonalLoop=1;jettySize=auto;html=1;entryX=0;entryY=0.75;entryDx=0;entryDy=0;" edge="1" parent="1" source="Hsyt4QbSnEiKnOeJpD4M-4" target="Hsyt4QbSnEiKnOeJpD4M-2">
          <mxGeometry relative="1" as="geometry" />
        </mxCell>
        <mxCell id="Hsyt4QbSnEiKnOeJpD4M-4" value="Client #3" style="rounded=1;whiteSpace=wrap;html=1;" vertex="1" parent="1">
          <mxGeometry x="100" y="270" width="120" height="60" as="geometry" />
        </mxCell>
        <mxCell id="Hsyt4QbSnEiKnOeJpD4M-12" style="edgeStyle=orthogonalEdgeStyle;rounded=0;orthogonalLoop=1;jettySize=auto;html=1;entryX=0;entryY=1;entryDx=0;entryDy=0;" edge="1" parent="1" source="Hsyt4QbSnEiKnOeJpD4M-5" target="Hsyt4QbSnEiKnOeJpD4M-2">
          <mxGeometry relative="1" as="geometry" />
        </mxCell>
        <mxCell id="Hsyt4QbSnEiKnOeJpD4M-23" value="Execute" style="edgeLabel;html=1;align=center;verticalAlign=middle;resizable=0;points=[];" vertex="1" connectable="0" parent="Hsyt4QbSnEiKnOeJpD4M-12">
          <mxGeometry x="-0.1333" y="2" relative="1" as="geometry">
            <mxPoint x="75" y="1" as="offset" />
          </mxGeometry>
        </mxCell>
        <mxCell id="Hsyt4QbSnEiKnOeJpD4M-5" value="Client #4" style="rounded=1;whiteSpace=wrap;html=1;" vertex="1" parent="1">
          <mxGeometry x="100" y="350" width="120" height="60" as="geometry" />
        </mxCell>
        <mxCell id="Hsyt4QbSnEiKnOeJpD4M-16" value="tmp/" style="swimlane;fontStyle=0;childLayout=stackLayout;horizontal=1;startSize=30;horizontalStack=0;resizeParent=1;resizeParentMax=0;resizeLast=0;collapsible=1;marginBottom=0;whiteSpace=wrap;html=1;" vertex="1" parent="1">
          <mxGeometry x="840" y="290" width="120" height="180" as="geometry" />
        </mxCell>
        <mxCell id="Hsyt4QbSnEiKnOeJpD4M-17" value="TaskNumber" style="text;strokeColor=none;fillColor=none;align=left;verticalAlign=middle;spacingLeft=4;spacingRight=4;overflow=hidden;points=[[0,0.5],[1,0.5]];portConstraint=eastwest;rotatable=0;whiteSpace=wrap;html=1;" vertex="1" parent="Hsyt4QbSnEiKnOeJpD4M-16">
          <mxGeometry y="30" width="120" height="30" as="geometry" />
        </mxCell>
        <mxCell id="Hsyt4QbSnEiKnOeJpD4M-18" value="Task1" style="text;strokeColor=none;fillColor=none;align=left;verticalAlign=middle;spacingLeft=4;spacingRight=4;overflow=hidden;points=[[0,0.5],[1,0.5]];portConstraint=eastwest;rotatable=0;whiteSpace=wrap;html=1;" vertex="1" parent="Hsyt4QbSnEiKnOeJpD4M-16">
          <mxGeometry y="60" width="120" height="30" as="geometry" />
        </mxCell>
        <mxCell id="Hsyt4QbSnEiKnOeJpD4M-19" value="Task2" style="text;strokeColor=none;fillColor=none;align=left;verticalAlign=middle;spacingLeft=4;spacingRight=4;overflow=hidden;points=[[0,0.5],[1,0.5]];portConstraint=eastwest;rotatable=0;whiteSpace=wrap;html=1;" vertex="1" parent="Hsyt4QbSnEiKnOeJpD4M-16">
          <mxGeometry y="90" width="120" height="30" as="geometry" />
        </mxCell>
        <mxCell id="Hsyt4QbSnEiKnOeJpD4M-39" value="Task3" style="text;strokeColor=none;fillColor=none;align=left;verticalAlign=middle;spacingLeft=4;spacingRight=4;overflow=hidden;points=[[0,0.5],[1,0.5]];portConstraint=eastwest;rotatable=0;whiteSpace=wrap;html=1;" vertex="1" parent="Hsyt4QbSnEiKnOeJpD4M-16">
          <mxGeometry y="120" width="120" height="30" as="geometry" />
        </mxCell>
        <mxCell id="Hsyt4QbSnEiKnOeJpD4M-40" value="..." style="text;strokeColor=none;fillColor=none;align=left;verticalAlign=middle;spacingLeft=4;spacingRight=4;overflow=hidden;points=[[0,0.5],[1,0.5]];portConstraint=eastwest;rotatable=0;whiteSpace=wrap;html=1;" vertex="1" parent="Hsyt4QbSnEiKnOeJpD4M-16">
          <mxGeometry y="150" width="120" height="30" as="geometry" />
        </mxCell>
        <mxCell id="Hsyt4QbSnEiKnOeJpD4M-20" value="Execute" style="rounded=0;whiteSpace=wrap;html=1;" vertex="1" parent="1">
          <mxGeometry x="670" y="340" width="100" height="30" as="geometry" />
        </mxCell>
        <mxCell id="Hsyt4QbSnEiKnOeJpD4M-21" value="Execute" style="rounded=0;whiteSpace=wrap;html=1;" vertex="1" parent="1">
          <mxGeometry x="670" y="390" width="100" height="30" as="geometry" />
        </mxCell>
        <mxCell id="Hsyt4QbSnEiKnOeJpD4M-22" value="Execute" style="rounded=0;whiteSpace=wrap;html=1;" vertex="1" parent="1">
          <mxGeometry x="670" y="440" width="100" height="30" as="geometry" />
        </mxCell>
        <mxCell id="Hsyt4QbSnEiKnOeJpD4M-24" value="Execute" style="edgeLabel;html=1;align=center;verticalAlign=middle;resizable=0;points=[];" vertex="1" connectable="0" parent="1">
          <mxGeometry x="490" y="275" as="geometry" />
        </mxCell>
        <mxCell id="Hsyt4QbSnEiKnOeJpD4M-25" value="Execute" style="edgeLabel;html=1;align=center;verticalAlign=middle;resizable=0;points=[];" vertex="1" connectable="0" parent="1">
          <mxGeometry x="490" y="243" as="geometry" />
        </mxCell>
        <mxCell id="Hsyt4QbSnEiKnOeJpD4M-26" value="Status" style="edgeLabel;html=1;align=center;verticalAlign=middle;resizable=0;points=[];" vertex="1" connectable="0" parent="1">
          <mxGeometry x="490" y="140" as="geometry" />
        </mxCell>
        <mxCell id="Hsyt4QbSnEiKnOeJpD4M-30" value="Status" style="rounded=0;whiteSpace=wrap;html=1;" vertex="1" parent="1">
          <mxGeometry x="670" y="140" width="100" height="30" as="geometry" />
        </mxCell>
        <mxCell id="Hsyt4QbSnEiKnOeJpD4M-32" value="" style="swimlane;startSize=0;" vertex="1" parent="1">
          <mxGeometry x="330" y="430" width="141" height="120" as="geometry" />
        </mxCell>
        <mxCell id="Hsyt4QbSnEiKnOeJpD4M-34" value="&lt;div align=&quot;left&quot;&gt;&lt;pre&gt;&lt;font face=&quot;Hack Font&quot;&gt;struct request {&lt;br&gt;    int type;&lt;br&gt;    int task;&lt;br&gt;    int est_time;&lt;br&gt;&lt;/font&gt;&lt;font face=&quot;Hack Font&quot;&gt;    char * command;&lt;/font&gt;&lt;br&gt;&lt;font face=&quot;Hack Font&quot;&gt;}&lt;/font&gt;&lt;br&gt;&lt;/pre&gt;&lt;/div&gt;" style="text;html=1;align=left;verticalAlign=middle;resizable=0;points=[];autosize=1;strokeColor=none;fillColor=none;" vertex="1" parent="Hsyt4QbSnEiKnOeJpD4M-32">
          <mxGeometry width="140" height="120" as="geometry" />
        </mxCell>
        <mxCell id="Hsyt4QbSnEiKnOeJpD4M-42" value="" style="endArrow=classic;html=1;rounded=0;exitX=1;exitY=0.5;exitDx=0;exitDy=0;entryX=0;entryY=0.5;entryDx=0;entryDy=0;" edge="1" parent="1" source="Hsyt4QbSnEiKnOeJpD4M-22" target="Hsyt4QbSnEiKnOeJpD4M-39">
          <mxGeometry width="50" height="50" relative="1" as="geometry">
            <mxPoint x="720" y="350" as="sourcePoint" />
            <mxPoint x="770" y="300" as="targetPoint" />
          </mxGeometry>
        </mxCell>
        <mxCell id="Hsyt4QbSnEiKnOeJpD4M-43" value="" style="endArrow=classic;html=1;rounded=0;exitX=1;exitY=0.5;exitDx=0;exitDy=0;entryX=0;entryY=0.5;entryDx=0;entryDy=0;" edge="1" parent="1" source="Hsyt4QbSnEiKnOeJpD4M-20" target="Hsyt4QbSnEiKnOeJpD4M-18">
          <mxGeometry width="50" height="50" relative="1" as="geometry">
            <mxPoint x="720" y="350" as="sourcePoint" />
            <mxPoint x="770" y="300" as="targetPoint" />
          </mxGeometry>
        </mxCell>
        <mxCell id="Hsyt4QbSnEiKnOeJpD4M-44" value="" style="endArrow=classic;html=1;rounded=0;exitX=1;exitY=0.5;exitDx=0;exitDy=0;entryX=0;entryY=0.5;entryDx=0;entryDy=0;" edge="1" parent="1" source="Hsyt4QbSnEiKnOeJpD4M-21" target="Hsyt4QbSnEiKnOeJpD4M-19">
          <mxGeometry width="50" height="50" relative="1" as="geometry">
            <mxPoint x="720" y="350" as="sourcePoint" />
            <mxPoint x="770" y="300" as="targetPoint" />
          </mxGeometry>
        </mxCell>
        <mxCell id="Hsyt4QbSnEiKnOeJpD4M-46" value="" style="endArrow=classic;html=1;rounded=0;exitX=0.5;exitY=0;exitDx=0;exitDy=0;entryX=1.008;entryY=0.15;entryDx=0;entryDy=0;entryPerimeter=0;" edge="1" parent="1" source="Hsyt4QbSnEiKnOeJpD4M-30" target="Hsyt4QbSnEiKnOeJpD4M-1">
          <mxGeometry width="50" height="50" relative="1" as="geometry">
            <mxPoint x="700" y="52.980000000000004" as="sourcePoint" />
            <mxPoint x="202.03999999999996" y="29.999999999999986" as="targetPoint" />
            <Array as="points">
              <mxPoint x="720" y="120" />
            </Array>
          </mxGeometry>
        </mxCell>
        <mxCell id="Hsyt4QbSnEiKnOeJpD4M-47" value="Status output" style="edgeLabel;html=1;align=center;verticalAlign=middle;resizable=0;points=[];" vertex="1" connectable="0" parent="1">
          <mxGeometry x="610" y="120" as="geometry" />
        </mxCell>
      </root>
    </mxGraphModel>
  </diagram>
</mxfile>
